HIERARCHY
ROOT Hips
{
  OFFSET 48.1414 92.443 13.7472
  CHANNELS 6 Xposition Yposition Zposition Zrotation Xrotation Yrotation
  JOINT spine
  {
    OFFSET 0 7.4756 0.429885
    CHANNELS 3 Zrotation Xrotation Yrotation
    JOINT spine1
    {
      OFFSET 0 9.92301 0
      CHANNELS 3 Zrotation Xrotation Yrotation
      JOINT spine2
      {
        OFFSET 0 9.50804 0
        CHANNELS 3 Zrotation Xrotation Yrotation
        JOINT Neck
        {
          OFFSET 0 24.4111 1.16384
          CHANNELS 3 Zrotation Xrotation Yrotation
          JOINT Head
          {
            OFFSET 0 7.37523 0
            CHANNELS 3 Zrotation Xrotation Yrotation
            End Site
            {
              OFFSET 0 17.8522 -5.88741
            }
          }
        }
        JOINT RightShoulder
        {
          OFFSET -4.00356 10.2679 -0.557468
          CHANNELS 3 Zrotation Xrotation Yrotation
          JOINT RightArm
          {
            OFFSET 0 13.4673 0
            CHANNELS 3 Zrotation Xrotation Yrotation
            JOINT RightArmRoll
            {
              OFFSET 0 6.79858 0
              CHANNELS 3 Zrotation Xrotation Yrotation
              JOINT RightForeArm
              {
                OFFSET 0 19.8018 0
                CHANNELS 3 Zrotation Xrotation Yrotation
                JOINT RightForeArmRoll
                {
                  OFFSET 0 7.62905 0
                  CHANNELS 3 Zrotation Xrotation Yrotation
                  JOINT RightHand
                  {
                    OFFSET 0 15.3098 0
                    CHANNELS 3 Zrotation Xrotation Yrotation
                    End Site
                    {
                      OFFSET 0 0 0
                    }
                  }
                }
              }
            }
          }
        }
        JOINT LeftShoulder
        {
          OFFSET 4.00356 10.2679 -0.557468
          CHANNELS 3 Zrotation Xrotation Yrotation
          JOINT LeftArm
          {
            OFFSET 0 13.4673 0
            CHANNELS 3 Zrotation Xrotation Yrotation
            JOINT LeftArmRoll
            {
              OFFSET 0 6.79858 0
              CHANNELS 3 Zrotation Xrotation Yrotation
              JOINT LeftForeArm
              {
                OFFSET 0 19.8018 0
                CHANNELS 3 Zrotation Xrotation Yrotation
                JOINT LeftForeArmRoll
                {
                  OFFSET 0 7.62905 0
                  CHANNELS 3 Zrotation Xrotation Yrotation
                  JOINT LeftHand
                  {
                    OFFSET 0 15.3098 0
                    CHANNELS 3 Zrotation Xrotation Yrotation
                    End Site
                    {
                      OFFSET 0 0 0
                    }
                  }
                }
              }
            }
          }
        }
      }
    }
  }
  JOINT RightUpLeg
  {
    OFFSET -6.62609 -1.21505 -1.01927
    CHANNELS 3 Zrotation Xrotation Yrotation
    JOINT RightUpLegRoll
    {
      OFFSET 0 17.9517 0
      CHANNELS 3 Zrotation Xrotation Yrotation
      JOINT RightLeg
      {
        OFFSET 0 -22.2304 0
        CHANNELS 3 Zrotation Xrotation Yrotation
        JOINT RightLegRoll
        {
          OFFSET 0 22.3032 0
          CHANNELS 3 Zrotation Xrotation Yrotation
          JOINT RightFoot
          {
            OFFSET 0 18.5636 0
            CHANNELS 3 Zrotation Xrotation Yrotation
            JOINT RightToeBase
            {
              OFFSET 0 15.5183 0
              CHANNELS 3 Zrotation Xrotation Yrotation
              End Site
              {
                OFFSET 0.00657761 7.51539 -0.866263
              }
            }
          }
        }
      }
    }
  }
  JOINT LeftUpLeg
  {
    OFFSET 6.62609 -1.21505 -1.01927
    CHANNELS 3 Zrotation Xrotation Yrotation
    JOINT LeftUpLegRoll
    {
      OFFSET 0 17.9518 0
      CHANNELS 3 Zrotation Xrotation Yrotation
      JOINT LeftLeg
      {
        OFFSET 0 22.2303 0
        CHANNELS 3 Zrotation Xrotation Yrotation
        JOINT LeftLegRoll
        {
          OFFSET 0 22.5093 0
          CHANNELS 3 Zrotation Xrotation Yrotation
          JOINT LeftFoot
          {
            OFFSET 0 18.3575 0
            CHANNELS 3 Zrotation Xrotation Yrotation
            JOINT LeftToeBase
            {
              OFFSET 0 15.5183 0
              CHANNELS 3 Zrotation Xrotation Yrotation
              End Site
              {
                OFFSET -0.029478 7.51539 -0.866263
              }
            }
          }
        }
      }
    }
  }
}
MOTION
Frames: 6
Frame Time: 0.00208333
47.4756 92.7912 16.0188 -2.22747 -6.88917 -1.26444 0.337144 -1.31464 0.049056 0.673862 1.3736 0.0482565 0.673784 3.0186 0.0369938 -3.65133 17.9688 -4.45429 6.30606 -3.19218 -4.77822 76.441 -1.38596 -2.61887 88.391 10.7156 22.0651 -1.14161e-006 -1.71084e-006 -7.30635e-006 7.02813 3.22839 -1.22411 1.03118e-005 -5.80589e-007 -3 8.02928 -4.95146 0.69768 -73.2559 0.226179 1.59087 -93.1658 5.60986 -30.2331 -3.29863e-006 -4.18676e-006 1.41708e-005 1.2619 2.96599 0.76974 -7.29318e-006 -6.39968e-007 3.00437 -8.03026 -4.95138 -0.697626 -173.648 -2.40796 -3.05432 180 7.01516e-015 178.798 176.98 11.9227 179.848 1.80235e-007 -4.00295e-006 0.203996 -21.1595 70.9705 22.3541 8.13649 25.2327 -3.48773 -170.244 1.82004 -5.75462 4.54188e-006 -4.6773e-006 -1.26636 -5.34547 -23.8898 -0.452671 1.26887e-006 2.66426e-006 -0.525768 19.6552 69.7532 -21.0995 -8.31443 30.8219 1.56227 
47.4736 92.8077 16.006 -2.23119 -6.87912 -1.31386 0.338716 -1.31143 0.0488705 0.67611 1.38003 0.0487632 0.676028 3.02503 0.0374631 -3.62893 17.8461 -4.44838 6.24862 -3.15374 -4.77176 76.443 -1.39381 -2.62235 88.3857 10.855 21.9685 -1.14161e-006 -1.71084e-006 -7.30635e-006 7.06766 3.48989 -1.24742 1.03118e-005 -5.80589e-007 -3 8.02928 -4.95146 0.69768 -73.2013 0.217956 1.58855 -93.1927 5.59507 -30.2444 -3.29863e-006 -4.18676e-006 1.41708e-005 1.26938 3.14009 0.768876 -7.29318e-006 -6.39968e-007 3.00437 -8.03026 -4.95138 -0.697626 -173.645 -2.39147 -3.06915 180 7.01516e-015 178.798 176.997 11.9202 179.846 1.80235e-007 -4.00295e-006 0.204852 -21.1632 70.9737 22.357 8.13649 25.2327 -3.48773 -170.251 1.82503 -5.75531 4.54188e-006 -4.6773e-006 -1.26656 -5.35229 -23.8832 -0.453359 1.26887e-006 2.66426e-006 -0.525644 19.647 69.7448 -21.0904 -8.31629 30.8438 1.57522 
47.4799 92.8026 15.9759 -2.2354 -6.86875 -1.36366 0.340308 -1.30824 0.0485873 0.678352 1.38644 0.0491293 0.67827 3.03144 0.0377918 -3.60535 17.7228 -4.4422 6.18945 -3.11485 -4.76488 76.4449 -1.40173 -2.62587 88.3822 10.9955 21.8721 -1.14161e-006 -1.71084e-006 -7.30635e-006 7.10781 3.74411 -1.27 1.03118e-005 -5.80589e-007 -3 8.02928 -4.95146 0.69768 -73.1454 0.209786 1.58607 -93.2209 5.57853 -30.2541 -3.29863e-006 -4.18676e-006 1.41708e-005 1.27583 3.30727 0.768274 -7.29318e-006 -6.39968e-007 3.00437 -8.03026 -4.95138 -0.697626 -173.64 -2.3747 -3.08534 180 7.01516e-015 178.798 177.015 11.9187 179.843 1.80235e-007 -4.00295e-006 0.205785 -21.1671 70.9772 22.3601 8.13649 25.2327 -3.48773 -170.258 1.83009 -5.75646 4.54188e-006 -4.6773e-006 -1.26679 -5.3592 -23.8762 -0.454055 1.26887e-006 2.66426e-006 -0.525535 19.6387 69.7362 -21.0812 -8.31815 30.8655 1.58806 
47.4832 92.7953 15.9649 -2.23995 -6.85814 -1.41374 0.341914 -1.30505 0.0482356 0.680591 1.39284 0.0493969 0.680508 3.03784 0.0380221 -3.58094 17.599 -4.43582 6.12906 -3.07565 -4.75769 76.447 -1.4097 -2.62941 88.3802 11.137 21.7759 -1.14161e-006 -1.71084e-006 -7.30635e-006 7.14844 3.99324 -1.29206 1.03118e-005 -5.80589e-007 -3 8.02928 -4.95146 0.69768 -73.0888 0.201655 1.58349 -93.2499 5.56077 -30.2627 -3.29863e-006 -4.18676e-006 1.41708e-005 1.28156 3.46962 0.767856 -7.29318e-006 -6.39968e-007 3.00437 -8.03026 -4.95138 -0.697626 -173.634 -2.35774 -3.10248 180 7.01516e-015 178.797 177.034 11.9178 179.84 1.80235e-007 -4.00295e-006 0.206771 -21.1713 70.981 22.3634 8.13649 25.2327 -3.48773 -170.264 1.83522 -5.75795 4.54188e-006 -4.6773e-006 -1.26703 -5.36617 -23.8691 -0.454756 1.26887e-006 2.66426e-006 -0.525436 19.6303 69.7275 -21.0718 -8.32001 30.8871 1.60083 
47.4932 92.7985 15.9482 -2.24469 -6.8474 -1.46397 0.343527 -1.30188 0.0478448 0.682828 1.39923 0.0496083 0.682746 3.04423 0.0381962 -3.55604 17.475 -4.42936 6.06797 -3.03627 -4.75034 76.449 -1.4177 -2.63297 88.3792 11.279 21.6798 -1.14161e-006 -1.71084e-006 -7.30635e-006 7.18942 4.23945 -1.31386 1.03118e-005 -5.80589e-007 -3 8.02928 -4.95146 0.69768 -73.0317 0.193545 1.58084 -93.2795 5.54232 -30.2706 -3.29863e-006 -4.18676e-006 1.41708e-005 1.28689 3.62921 0.767546 -7.29318e-006 -6.39968e-007 3.00437 -8.03026 -4.95138 -0.697626 -173.628 -2.34066 -3.12015 180 7.01516e-015 178.797 177.054 11.9173 179.837 1.80235e-007 -4.00295e-006 0.207787 -21.1756 70.9848 22.3669 8.13649 25.2327 -3.48773 -170.27 1.84037 -5.75963 4.54188e-006 -4.6773e-006 -1.26728 -5.37317 -23.8618 -0.455459 1.26887e-006 2.66426e-006 -0.525344 19.6218 69.7187 -21.0624 -8.32188 30.9086 1.61356 
47.5003 92.7653 15.9296 -2.24946 -6.83663 -1.51424 0.345143 -1.2987 0.0474443 0.685065 1.40561 0.0498056 0.684983 3.05062 0.0383561 -3.53099 17.3508 -4.42289 6.0067 -2.99685 -4.74295 76.4511 -1.42571 -2.63653 88.3788 11.4212 21.5837 -1.14161e-006 -1.71084e-006 -7.30635e-006 7.23063 4.48493 -1.33561 1.03118e-005 -5.80589e-007 -3 8.02928 -4.95146 0.69768 -72.9745 0.18544 1.57817 -93.3091 5.52369 -30.2785 -3.29863e-006 -4.18676e-006 1.41708e-005 1.29211 3.7881 0.767267 -7.29318e-006 -6.39968e-007 3.00437 -8.03026 -4.95138 -0.697626 -173.622 -2.32356 -3.13796 180 7.01516e-015 178.797 177.074 11.9169 179.834 1.80235e-007 -4.00295e-006 0.208811 -21.18 70.9887 22.3703 8.13649 25.2327 -3.48773 -170.276 1.84554 -5.76135 4.54188e-006 -4.6773e-006 -1.26754 -5.38017 -23.8545 -0.456164 1.26887e-006 2.66426e-006 -0.525253 19.6133 69.7099 -21.053 -8.32376 30.9301 1.62628 
